<mxfile host="app.diagrams.net" agent="Mozilla/5.0 (Windows NT 10.0; Win64; x64) AppleWebKit/537.36 (KHTML, like Gecko) Chrome/131.0.0.0 Safari/537.36 Edg/131.0.0.0" version="26.0.5">
  <diagram name="Page-1" id="0783ab3e-0a74-02c8-0abd-f7b4e66b4bec">
    <mxGraphModel dx="1678" dy="919" grid="1" gridSize="10" guides="1" tooltips="1" connect="1" arrows="1" fold="1" page="1" pageScale="1" pageWidth="850" pageHeight="1100" background="none" math="0" shadow="0">
      <root>
        <mxCell id="0" />
        <mxCell id="1" parent="0" />
        <mxCell id="1c1d494c118603dd-1" value="" style="swimlane;html=1;childLayout=stackLayout;startSize=20;rounded=0;shadow=0;comic=0;labelBackgroundColor=none;strokeWidth=1;fontFamily=Verdana;fontSize=12;align=center;" parent="1" vertex="1">
          <mxGeometry x="40" y="10" width="760" height="990" as="geometry" />
        </mxCell>
        <mxCell id="1c1d494c118603dd-2" value="" style="swimlane;html=1;startSize=20;" parent="1c1d494c118603dd-1" vertex="1">
          <mxGeometry y="20" width="260" height="970" as="geometry" />
        </mxCell>
        <mxCell id="1c1d494c118603dd-34" style="edgeStyle=none;rounded=0;html=1;labelBackgroundColor=none;startArrow=none;startFill=0;startSize=5;endArrow=classicThin;endFill=1;endSize=5;jettySize=auto;orthogonalLoop=1;strokeWidth=1;fontFamily=Verdana;fontSize=12;" parent="1c1d494c118603dd-2" source="1c1d494c118603dd-6" edge="1">
          <mxGeometry relative="1" as="geometry">
            <mxPoint x="140" y="290" as="targetPoint" />
          </mxGeometry>
        </mxCell>
        <mxCell id="1c1d494c118603dd-6" value="Valitse tili" style="rounded=1;whiteSpace=wrap;html=1;shadow=0;comic=0;labelBackgroundColor=none;strokeWidth=1;fontFamily=Verdana;fontSize=12;align=center;arcSize=50;" parent="1c1d494c118603dd-2" vertex="1">
          <mxGeometry x="90" y="220" width="100" height="30" as="geometry" />
        </mxCell>
        <mxCell id="1c1d494c118603dd-7" value="Tilitapahtumat" style="rounded=1;whiteSpace=wrap;html=1;shadow=0;comic=0;labelBackgroundColor=none;strokeWidth=1;fontFamily=Verdana;fontSize=12;align=center;arcSize=50;" parent="1c1d494c118603dd-2" vertex="1">
          <mxGeometry x="140" y="480" width="100" height="30" as="geometry" />
        </mxCell>
        <mxCell id="1c1d494c118603dd-21" value="Jos asiakkaalla on useita tilejä ja kortteja, valitaan käytettävä tili kirjautumisen jälkeen&amp;nbsp;" style="shape=note;whiteSpace=wrap;html=1;rounded=0;shadow=0;comic=0;labelBackgroundColor=none;strokeWidth=1;fontFamily=Verdana;fontSize=12;align=center;size=20;" parent="1c1d494c118603dd-2" vertex="1">
          <mxGeometry x="20" y="620" width="90" height="126" as="geometry" />
        </mxCell>
        <mxCell id="60571a20871a0731-8" value="Kirjaudu sisään" style="rounded=1;whiteSpace=wrap;html=1;shadow=0;comic=0;labelBackgroundColor=none;strokeWidth=1;fontFamily=Verdana;fontSize=12;align=center;arcSize=50;" parent="1c1d494c118603dd-2" vertex="1">
          <mxGeometry x="70" y="110" width="100" height="30" as="geometry" />
        </mxCell>
        <mxCell id="1c1d494c118603dd-27" style="edgeStyle=orthogonalEdgeStyle;rounded=0;html=1;labelBackgroundColor=none;startArrow=none;startFill=0;startSize=5;endArrow=classicThin;endFill=1;endSize=5;jettySize=auto;orthogonalLoop=1;strokeWidth=1;fontFamily=Verdana;fontSize=12" parent="1c1d494c118603dd-2" target="60571a20871a0731-8" edge="1">
          <mxGeometry relative="1" as="geometry">
            <mxPoint x="120" y="70" as="sourcePoint" />
          </mxGeometry>
        </mxCell>
        <mxCell id="1c1d494c118603dd-28" style="edgeStyle=orthogonalEdgeStyle;rounded=0;html=1;entryX=0.5;entryY=0;labelBackgroundColor=none;startArrow=none;startFill=0;startSize=5;endArrow=classicThin;endFill=1;endSize=5;jettySize=auto;orthogonalLoop=1;strokeWidth=1;fontFamily=Verdana;fontSize=12;entryDx=0;entryDy=0;" parent="1c1d494c118603dd-2" source="60571a20871a0731-8" target="1c1d494c118603dd-6" edge="1">
          <mxGeometry relative="1" as="geometry">
            <Array as="points">
              <mxPoint x="140" y="160" />
              <mxPoint x="140" y="160" />
            </Array>
            <mxPoint x="353.5" y="160" as="targetPoint" />
          </mxGeometry>
        </mxCell>
        <mxCell id="1c1d494c118603dd-5" value="Nosto" style="rounded=1;whiteSpace=wrap;html=1;shadow=0;comic=0;labelBackgroundColor=none;strokeWidth=1;fontFamily=Verdana;fontSize=12;align=center;arcSize=50;" parent="1c1d494c118603dd-2" vertex="1">
          <mxGeometry x="140" y="390" width="100" height="30" as="geometry" />
        </mxCell>
        <mxCell id="5cxWj7lu7yWEpYEgH8YU-16" style="edgeStyle=orthogonalEdgeStyle;rounded=0;orthogonalLoop=1;jettySize=auto;html=1;entryX=0;entryY=0.75;entryDx=0;entryDy=0;entryPerimeter=0;" parent="1c1d494c118603dd-2" source="5cxWj7lu7yWEpYEgH8YU-1" edge="1">
          <mxGeometry relative="1" as="geometry">
            <mxPoint x="100" y="60" as="targetPoint" />
            <Array as="points">
              <mxPoint x="40" y="585" />
              <mxPoint x="40" y="60" />
            </Array>
          </mxGeometry>
        </mxCell>
        <mxCell id="5cxWj7lu7yWEpYEgH8YU-1" value="Kirjaudu ulos" style="rounded=1;whiteSpace=wrap;html=1;shadow=0;comic=0;labelBackgroundColor=none;strokeWidth=1;fontFamily=Verdana;fontSize=12;align=center;arcSize=50;" parent="1c1d494c118603dd-2" vertex="1">
          <mxGeometry x="140" y="610" width="100" height="30" as="geometry" />
        </mxCell>
        <mxCell id="5cxWj7lu7yWEpYEgH8YU-8" style="edgeStyle=orthogonalEdgeStyle;rounded=0;orthogonalLoop=1;jettySize=auto;html=1;exitX=0;exitY=0.5;exitDx=0;exitDy=0;entryX=0.1;entryY=1;entryDx=0;entryDy=0;entryPerimeter=0;" parent="1c1d494c118603dd-2" source="5cxWj7lu7yWEpYEgH8YU-2" target="1c1d494c118603dd-6" edge="1">
          <mxGeometry relative="1" as="geometry">
            <mxPoint x="110" y="330" as="targetPoint" />
          </mxGeometry>
        </mxCell>
        <mxCell id="5cxWj7lu7yWEpYEgH8YU-2" value="Paluu" style="rounded=1;whiteSpace=wrap;html=1;shadow=0;comic=0;labelBackgroundColor=none;strokeWidth=1;fontFamily=Verdana;fontSize=12;align=center;arcSize=50;" parent="1c1d494c118603dd-2" vertex="1">
          <mxGeometry x="140" y="530" width="100" height="30" as="geometry" />
        </mxCell>
        <mxCell id="5cxWj7lu7yWEpYEgH8YU-10" style="edgeStyle=orthogonalEdgeStyle;rounded=0;orthogonalLoop=1;jettySize=auto;html=1;entryX=0;entryY=0.75;entryDx=0;entryDy=0;" parent="1c1d494c118603dd-2" source="5cxWj7lu7yWEpYEgH8YU-3" target="1c1d494c118603dd-7" edge="1">
          <mxGeometry relative="1" as="geometry">
            <Array as="points">
              <mxPoint x="135" y="473" />
            </Array>
          </mxGeometry>
        </mxCell>
        <mxCell id="5cxWj7lu7yWEpYEgH8YU-11" style="edgeStyle=orthogonalEdgeStyle;rounded=0;orthogonalLoop=1;jettySize=auto;html=1;entryX=0;entryY=0.75;entryDx=0;entryDy=0;" parent="1c1d494c118603dd-2" source="5cxWj7lu7yWEpYEgH8YU-3" target="5cxWj7lu7yWEpYEgH8YU-2" edge="1">
          <mxGeometry relative="1" as="geometry">
            <Array as="points">
              <mxPoint x="120" y="533" />
            </Array>
          </mxGeometry>
        </mxCell>
        <mxCell id="5cxWj7lu7yWEpYEgH8YU-12" style="edgeStyle=orthogonalEdgeStyle;rounded=0;orthogonalLoop=1;jettySize=auto;html=1;entryX=0;entryY=0.75;entryDx=0;entryDy=0;exitX=0;exitY=0.5;exitDx=0;exitDy=0;" parent="1c1d494c118603dd-2" source="5cxWj7lu7yWEpYEgH8YU-3" target="5cxWj7lu7yWEpYEgH8YU-1" edge="1">
          <mxGeometry relative="1" as="geometry">
            <mxPoint x="75" y="322" as="sourcePoint" />
            <mxPoint x="80" y="592.5" as="targetPoint" />
            <Array as="points">
              <mxPoint x="80" y="307" />
              <mxPoint x="80" y="593" />
            </Array>
          </mxGeometry>
        </mxCell>
        <mxCell id="5cxWj7lu7yWEpYEgH8YU-3" value="Pääsivu" style="rounded=0;whiteSpace=wrap;html=1;shadow=0;comic=0;labelBackgroundColor=none;strokeWidth=1;fontFamily=Verdana;fontSize=12;align=center;arcSize=50;" parent="1c1d494c118603dd-2" vertex="1">
          <mxGeometry x="120" y="292" width="70" height="30" as="geometry" />
        </mxCell>
        <mxCell id="5cxWj7lu7yWEpYEgH8YU-6" style="edgeStyle=orthogonalEdgeStyle;rounded=0;orthogonalLoop=1;jettySize=auto;html=1;exitX=0.5;exitY=1;exitDx=0;exitDy=0;" parent="1c1d494c118603dd-2" source="5cxWj7lu7yWEpYEgH8YU-1" target="5cxWj7lu7yWEpYEgH8YU-1" edge="1">
          <mxGeometry relative="1" as="geometry" />
        </mxCell>
        <mxCell id="5cxWj7lu7yWEpYEgH8YU-9" style="edgeStyle=orthogonalEdgeStyle;rounded=0;orthogonalLoop=1;jettySize=auto;html=1;entryX=0.61;entryY=0.167;entryDx=0;entryDy=0;entryPerimeter=0;exitX=0.5;exitY=1;exitDx=0;exitDy=0;" parent="1c1d494c118603dd-2" source="5cxWj7lu7yWEpYEgH8YU-3" target="1c1d494c118603dd-5" edge="1">
          <mxGeometry relative="1" as="geometry">
            <mxPoint x="140" y="340" as="sourcePoint" />
            <Array as="points">
              <mxPoint x="170" y="322" />
              <mxPoint x="170" y="360" />
              <mxPoint x="202" y="360" />
            </Array>
          </mxGeometry>
        </mxCell>
        <mxCell id="5cxWj7lu7yWEpYEgH8YU-18" value="" style="endArrow=none;dashed=1;html=1;dashPattern=1 3;strokeWidth=2;rounded=0;exitX=0.122;exitY=0.008;exitDx=0;exitDy=0;exitPerimeter=0;" parent="1c1d494c118603dd-2" source="1c1d494c118603dd-21" edge="1">
          <mxGeometry width="50" height="50" relative="1" as="geometry">
            <mxPoint x="50" y="280" as="sourcePoint" />
            <mxPoint x="100" y="230" as="targetPoint" />
            <Array as="points">
              <mxPoint x="20" y="380" />
            </Array>
          </mxGeometry>
        </mxCell>
        <mxCell id="5cxWj7lu7yWEpYEgH8YU-25" value="Aloitusnäyttö" style="rounded=0;whiteSpace=wrap;html=1;shadow=0;comic=0;labelBackgroundColor=none;strokeWidth=1;fontFamily=Verdana;fontSize=12;align=center;arcSize=50;" parent="1c1d494c118603dd-2" vertex="1">
          <mxGeometry x="102.5" y="40" width="105" height="30" as="geometry" />
        </mxCell>
        <mxCell id="1c1d494c118603dd-3" value="" style="swimlane;html=1;startSize=20;" parent="1c1d494c118603dd-1" vertex="1">
          <mxGeometry x="260" y="20" width="250" height="970" as="geometry" />
        </mxCell>
        <mxCell id="1c1d494c118603dd-11" value="summa" style="rounded=1;whiteSpace=wrap;html=1;shadow=0;comic=0;labelBackgroundColor=none;strokeWidth=1;fontFamily=Verdana;fontSize=12;align=center;arcSize=50;" parent="1c1d494c118603dd-3" vertex="1">
          <mxGeometry x="10" y="290" width="100" height="30" as="geometry" />
        </mxCell>
        <mxCell id="1c1d494c118603dd-14" value="Näyttää 10 viimeistä tilitapahtumaa" style="rounded=0;whiteSpace=wrap;html=1;shadow=0;comic=0;labelBackgroundColor=none;strokeWidth=1;fontFamily=Verdana;fontSize=12;align=center;arcSize=50;" parent="1c1d494c118603dd-3" vertex="1">
          <mxGeometry x="30" y="430" width="105" height="50" as="geometry" />
        </mxCell>
        <mxCell id="5cxWj7lu7yWEpYEgH8YU-20" value="Näytöllä tapahtuman tiedot ja saldo" style="rounded=0;whiteSpace=wrap;html=1;shadow=0;comic=0;labelBackgroundColor=none;strokeWidth=1;fontFamily=Verdana;fontSize=12;align=center;arcSize=50;" parent="1c1d494c118603dd-3" vertex="1">
          <mxGeometry x="15" y="200" width="115" height="50" as="geometry" />
        </mxCell>
        <mxCell id="5cxWj7lu7yWEpYEgH8YU-21" style="edgeStyle=orthogonalEdgeStyle;rounded=0;orthogonalLoop=1;jettySize=auto;html=1;entryX=0.391;entryY=1;entryDx=0;entryDy=0;entryPerimeter=0;" parent="1c1d494c118603dd-3" source="1c1d494c118603dd-11" target="5cxWj7lu7yWEpYEgH8YU-20" edge="1">
          <mxGeometry relative="1" as="geometry" />
        </mxCell>
        <mxCell id="1c1d494c118603dd-22" value="Jos asiakkaalla on useampi tili, voi varoja siirtää omien tilien välillä" style="shape=note;whiteSpace=wrap;html=1;rounded=0;shadow=0;comic=0;labelBackgroundColor=none;strokeWidth=1;fontFamily=Verdana;fontSize=12;align=center;size=20;" parent="1c1d494c118603dd-3" vertex="1">
          <mxGeometry x="20" y="750" width="125" height="85" as="geometry" />
        </mxCell>
        <mxCell id="5cxWj7lu7yWEpYEgH8YU-27" value="Valitse kohdetili" style="rounded=1;whiteSpace=wrap;html=1;shadow=0;comic=0;labelBackgroundColor=none;strokeWidth=1;fontFamily=Verdana;fontSize=12;align=center;arcSize=50;" parent="1c1d494c118603dd-3" vertex="1">
          <mxGeometry x="45" y="360" width="100" height="30" as="geometry" />
        </mxCell>
        <mxCell id="5cxWj7lu7yWEpYEgH8YU-30" style="edgeStyle=orthogonalEdgeStyle;rounded=0;orthogonalLoop=1;jettySize=auto;html=1;exitX=0.25;exitY=0;exitDx=0;exitDy=0;entryX=0.61;entryY=1;entryDx=0;entryDy=0;entryPerimeter=0;" parent="1c1d494c118603dd-3" source="5cxWj7lu7yWEpYEgH8YU-27" target="1c1d494c118603dd-11" edge="1">
          <mxGeometry relative="1" as="geometry" />
        </mxCell>
        <mxCell id="5cxWj7lu7yWEpYEgH8YU-40" style="edgeStyle=orthogonalEdgeStyle;rounded=0;orthogonalLoop=1;jettySize=auto;html=1;exitX=1;exitY=0.5;exitDx=0;exitDy=0;entryX=0;entryY=0.5;entryDx=0;entryDy=0;" parent="1c1d494c118603dd-3" source="5cxWj7lu7yWEpYEgH8YU-35" target="5cxWj7lu7yWEpYEgH8YU-37" edge="1">
          <mxGeometry relative="1" as="geometry">
            <Array as="points">
              <mxPoint x="110" y="40" />
              <mxPoint x="130" y="40" />
            </Array>
          </mxGeometry>
        </mxCell>
        <mxCell id="5cxWj7lu7yWEpYEgH8YU-42" style="edgeStyle=orthogonalEdgeStyle;rounded=0;orthogonalLoop=1;jettySize=auto;html=1;entryX=0;entryY=0.25;entryDx=0;entryDy=0;" parent="1c1d494c118603dd-3" source="5cxWj7lu7yWEpYEgH8YU-35" target="5cxWj7lu7yWEpYEgH8YU-38" edge="1">
          <mxGeometry relative="1" as="geometry">
            <Array as="points">
              <mxPoint x="110" y="110" />
              <mxPoint x="135" y="110" />
            </Array>
          </mxGeometry>
        </mxCell>
        <mxCell id="5cxWj7lu7yWEpYEgH8YU-35" value="Valitse kieli" style="rounded=1;whiteSpace=wrap;html=1;shadow=0;comic=0;labelBackgroundColor=none;strokeWidth=1;fontFamily=Verdana;fontSize=12;align=center;arcSize=50;" parent="1c1d494c118603dd-3" vertex="1">
          <mxGeometry x="10" y="50" width="100" height="30" as="geometry" />
        </mxCell>
        <mxCell id="5cxWj7lu7yWEpYEgH8YU-37" value="english" style="rounded=1;whiteSpace=wrap;html=1;shadow=0;comic=0;labelBackgroundColor=none;strokeWidth=1;fontFamily=Verdana;fontSize=12;align=center;arcSize=50;" parent="1c1d494c118603dd-3" vertex="1">
          <mxGeometry x="130" y="40" width="100" height="30" as="geometry" />
        </mxCell>
        <mxCell id="5cxWj7lu7yWEpYEgH8YU-38" value="suomi" style="rounded=1;whiteSpace=wrap;html=1;shadow=0;comic=0;labelBackgroundColor=none;strokeWidth=1;fontFamily=Verdana;fontSize=12;align=center;arcSize=50;" parent="1c1d494c118603dd-3" vertex="1">
          <mxGeometry x="135" y="110" width="100" height="30" as="geometry" />
        </mxCell>
        <mxCell id="1c1d494c118603dd-4" value="" style="swimlane;html=1;startSize=20;" parent="1c1d494c118603dd-1" vertex="1">
          <mxGeometry x="510" y="20" width="250" height="970" as="geometry" />
        </mxCell>
        <mxCell id="5cxWj7lu7yWEpYEgH8YU-29" value="Maksa" style="rounded=1;whiteSpace=wrap;html=1;shadow=0;comic=0;labelBackgroundColor=#66FFFF;strokeWidth=1;fontFamily=Verdana;fontSize=12;align=center;arcSize=50;" parent="1c1d494c118603dd-4" vertex="1">
          <mxGeometry x="40" y="610" width="100" height="30" as="geometry" />
        </mxCell>
        <mxCell id="5cxWj7lu7yWEpYEgH8YU-31" value="Syötä saajan tilinumero" style="rounded=1;whiteSpace=wrap;html=1;shadow=0;comic=0;labelBackgroundColor=none;strokeWidth=1;fontFamily=Verdana;fontSize=12;align=center;arcSize=50;" parent="1c1d494c118603dd-4" vertex="1">
          <mxGeometry x="35" y="540" width="115" height="40" as="geometry" />
        </mxCell>
        <mxCell id="5cxWj7lu7yWEpYEgH8YU-32" style="edgeStyle=orthogonalEdgeStyle;rounded=0;orthogonalLoop=1;jettySize=auto;html=1;exitX=0.5;exitY=0;exitDx=0;exitDy=0;entryX=0.57;entryY=1;entryDx=0;entryDy=0;entryPerimeter=0;" parent="1c1d494c118603dd-4" source="5cxWj7lu7yWEpYEgH8YU-29" target="5cxWj7lu7yWEpYEgH8YU-31" edge="1">
          <mxGeometry relative="1" as="geometry" />
        </mxCell>
        <mxCell id="5cxWj7lu7yWEpYEgH8YU-23" value="Siirrä&amp;nbsp;" style="rounded=1;whiteSpace=wrap;html=1;shadow=0;comic=0;labelBackgroundColor=#66FFFF;strokeWidth=1;fontFamily=Verdana;fontSize=12;align=center;arcSize=47;" parent="1c1d494c118603dd-4" vertex="1">
          <mxGeometry x="40" y="495" width="100" height="30" as="geometry" />
        </mxCell>
        <mxCell id="5cxWj7lu7yWEpYEgH8YU-44" value="Muuttaa tekstit englanniksi, sama sisältö" style="shape=note;whiteSpace=wrap;html=1;rounded=0;shadow=0;comic=0;labelBackgroundColor=none;strokeWidth=1;fontFamily=Verdana;fontSize=12;align=center;size=20;" parent="1c1d494c118603dd-4" vertex="1">
          <mxGeometry x="35" y="40" width="90" height="70" as="geometry" />
        </mxCell>
        <mxCell id="5cxWj7lu7yWEpYEgH8YU-13" style="edgeStyle=orthogonalEdgeStyle;rounded=0;orthogonalLoop=1;jettySize=auto;html=1;entryX=0.17;entryY=0.933;entryDx=0;entryDy=0;entryPerimeter=0;" parent="1c1d494c118603dd-1" source="1c1d494c118603dd-5" target="1c1d494c118603dd-11" edge="1">
          <mxGeometry relative="1" as="geometry" />
        </mxCell>
        <mxCell id="5cxWj7lu7yWEpYEgH8YU-15" style="edgeStyle=orthogonalEdgeStyle;rounded=0;orthogonalLoop=1;jettySize=auto;html=1;entryX=0;entryY=0.75;entryDx=0;entryDy=0;" parent="1c1d494c118603dd-1" source="1c1d494c118603dd-7" target="1c1d494c118603dd-14" edge="1">
          <mxGeometry relative="1" as="geometry">
            <mxPoint x="270" y="485" as="targetPoint" />
          </mxGeometry>
        </mxCell>
        <mxCell id="5cxWj7lu7yWEpYEgH8YU-19" style="edgeStyle=orthogonalEdgeStyle;rounded=0;orthogonalLoop=1;jettySize=auto;html=1;entryX=1;entryY=0.75;entryDx=0;entryDy=0;" parent="1c1d494c118603dd-1" source="1c1d494c118603dd-14" target="5cxWj7lu7yWEpYEgH8YU-2" edge="1">
          <mxGeometry relative="1" as="geometry">
            <Array as="points">
              <mxPoint x="320" y="553" />
            </Array>
          </mxGeometry>
        </mxCell>
        <mxCell id="5cxWj7lu7yWEpYEgH8YU-22" style="edgeStyle=orthogonalEdgeStyle;rounded=0;orthogonalLoop=1;jettySize=auto;html=1;entryX=1;entryY=0.5;entryDx=0;entryDy=0;" parent="1c1d494c118603dd-1" source="5cxWj7lu7yWEpYEgH8YU-20" target="5cxWj7lu7yWEpYEgH8YU-2" edge="1">
          <mxGeometry relative="1" as="geometry">
            <Array as="points">
              <mxPoint x="230" y="245" />
              <mxPoint x="230" y="400" />
              <mxPoint x="260" y="400" />
              <mxPoint x="260" y="545" />
            </Array>
          </mxGeometry>
        </mxCell>
        <mxCell id="5cxWj7lu7yWEpYEgH8YU-26" value="" style="endArrow=none;dashed=1;html=1;dashPattern=1 3;strokeWidth=2;rounded=0;exitX=0.624;exitY=0.047;exitDx=0;exitDy=0;exitPerimeter=0;entryX=0;entryY=0.75;entryDx=0;entryDy=0;" parent="1c1d494c118603dd-1" source="1c1d494c118603dd-22" target="5cxWj7lu7yWEpYEgH8YU-23" edge="1">
          <mxGeometry width="50" height="50" relative="1" as="geometry">
            <mxPoint x="360" y="500" as="sourcePoint" />
            <mxPoint x="650" y="540" as="targetPoint" />
          </mxGeometry>
        </mxCell>
        <mxCell id="5cxWj7lu7yWEpYEgH8YU-28" style="edgeStyle=orthogonalEdgeStyle;rounded=0;orthogonalLoop=1;jettySize=auto;html=1;entryX=0.18;entryY=1.033;entryDx=0;entryDy=0;entryPerimeter=0;" parent="1c1d494c118603dd-1" source="5cxWj7lu7yWEpYEgH8YU-23" target="5cxWj7lu7yWEpYEgH8YU-27" edge="1">
          <mxGeometry relative="1" as="geometry">
            <Array as="points">
              <mxPoint x="600" y="440" />
              <mxPoint x="323" y="440" />
            </Array>
          </mxGeometry>
        </mxCell>
        <mxCell id="5cxWj7lu7yWEpYEgH8YU-33" style="edgeStyle=orthogonalEdgeStyle;rounded=0;orthogonalLoop=1;jettySize=auto;html=1;entryX=1;entryY=0.5;entryDx=0;entryDy=0;" parent="1c1d494c118603dd-1" source="5cxWj7lu7yWEpYEgH8YU-31" target="1c1d494c118603dd-11" edge="1">
          <mxGeometry relative="1" as="geometry" />
        </mxCell>
        <mxCell id="5cxWj7lu7yWEpYEgH8YU-36" value="" style="edgeStyle=orthogonalEdgeStyle;rounded=0;orthogonalLoop=1;jettySize=auto;html=1;" parent="1c1d494c118603dd-1" source="5cxWj7lu7yWEpYEgH8YU-25" target="5cxWj7lu7yWEpYEgH8YU-35" edge="1">
          <mxGeometry relative="1" as="geometry" />
        </mxCell>
        <mxCell id="5cxWj7lu7yWEpYEgH8YU-39" value="" style="edgeStyle=orthogonalEdgeStyle;rounded=0;orthogonalLoop=1;jettySize=auto;html=1;entryX=0.75;entryY=0;entryDx=0;entryDy=0;" parent="1c1d494c118603dd-1" source="5cxWj7lu7yWEpYEgH8YU-38" target="60571a20871a0731-8" edge="1">
          <mxGeometry relative="1" as="geometry" />
        </mxCell>
        <mxCell id="5cxWj7lu7yWEpYEgH8YU-43" style="edgeStyle=orthogonalEdgeStyle;rounded=0;orthogonalLoop=1;jettySize=auto;html=1;entryX=1;entryY=0;entryDx=0;entryDy=0;" parent="1c1d494c118603dd-1" source="5cxWj7lu7yWEpYEgH8YU-37" target="5cxWj7lu7yWEpYEgH8YU-25" edge="1">
          <mxGeometry relative="1" as="geometry">
            <Array as="points">
              <mxPoint x="440" y="50" />
              <mxPoint x="208" y="50" />
            </Array>
          </mxGeometry>
        </mxCell>
        <mxCell id="5cxWj7lu7yWEpYEgH8YU-45" value="" style="endArrow=none;dashed=1;html=1;dashPattern=1 3;strokeWidth=2;rounded=0;entryX=-0.044;entryY=0.643;entryDx=0;entryDy=0;entryPerimeter=0;exitX=1;exitY=0.5;exitDx=0;exitDy=0;" parent="1c1d494c118603dd-1" source="5cxWj7lu7yWEpYEgH8YU-37" target="5cxWj7lu7yWEpYEgH8YU-44" edge="1">
          <mxGeometry width="50" height="50" relative="1" as="geometry">
            <mxPoint x="623.02" y="-200" as="sourcePoint" />
            <mxPoint x="681.98" y="-180.5" as="targetPoint" />
            <Array as="points">
              <mxPoint x="523.02" y="107.5" />
            </Array>
          </mxGeometry>
        </mxCell>
      </root>
    </mxGraphModel>
  </diagram>
</mxfile>
